<svg width="18" height="18" viewBox="0 0 18 18" fill="none" xmlns="http://www.w3.org/2000/svg">
  <path d="M0 13.5V12.3188C0 11.7813 0.275 11.3438 0.825 11.0063C1.375 10.6688 2.1 10.5 3 10.5C3.1625 10.5 3.31875 10.5031 3.46875 10.5094C3.61875 10.5156 3.7625 10.5313 3.9 10.5563C3.725 10.8188 3.59375 11.0938 3.50625 11.3813C3.41875 11.6688 3.375 11.9688 3.375 12.2813V13.5H0ZM4.5 13.5V12.2813C4.5 11.8813 4.60938 11.5156 4.82812 11.1844C5.04688 10.8531 5.35625 10.5625 5.75625 10.3125C6.15625 10.0625 6.63438 9.875 7.19063 9.75C7.74688 9.625 8.35 9.5625 9 9.5625C9.6625 9.5625 10.2719 9.625 10.8281 9.75C11.3844 9.875 11.8625 10.0625 12.2625 10.3125C12.6625 10.5625 12.9688 10.8531 13.1813 11.1844C13.3938 11.5156 13.5 11.8813 13.5 12.2813V13.5H4.5ZM14.625 13.5V12.2813C14.625 11.9563 14.5844 11.65 14.5031 11.3625C14.4219 11.075 14.3 10.8063 14.1375 10.5563C14.275 10.5313 14.4156 10.5156 14.5594 10.5094C14.7031 10.5031 14.85 10.5 15 10.5C15.9 10.5 16.625 10.6656 17.175 10.9969C17.725 11.3281 18 11.7688 18 12.3188V13.5H14.625ZM6.09375 12H11.925C11.8 11.75 11.4531 11.5313 10.8844 11.3438C10.3156 11.1563 9.6875 11.0625 9 11.0625C8.3125 11.0625 7.68438 11.1563 7.11563 11.3438C6.54688 11.5313 6.20625 11.75 6.09375 12ZM3 9.75C2.5875 9.75 2.23438 9.60313 1.94063 9.30938C1.64688 9.01562 1.5 8.6625 1.5 8.25C1.5 7.825 1.64688 7.46875 1.94063 7.18125C2.23438 6.89375 2.5875 6.75 3 6.75C3.425 6.75 3.78125 6.89375 4.06875 7.18125C4.35625 7.46875 4.5 7.825 4.5 8.25C4.5 8.6625 4.35625 9.01562 4.06875 9.30938C3.78125 9.60313 3.425 9.75 3 9.75ZM15 9.75C14.5875 9.75 14.2344 9.60313 13.9406 9.30938C13.6469 9.01562 13.5 8.6625 13.5 8.25C13.5 7.825 13.6469 7.46875 13.9406 7.18125C14.2344 6.89375 14.5875 6.75 15 6.75C15.425 6.75 15.7813 6.89375 16.0688 7.18125C16.3563 7.46875 16.5 7.825 16.5 8.25C16.5 8.6625 16.3563 9.01562 16.0688 9.30938C15.7813 9.60313 15.425 9.75 15 9.75ZM9 9C8.375 9 7.84375 8.78125 7.40625 8.34375C6.96875 7.90625 6.75 7.375 6.75 6.75C6.75 6.1125 6.96875 5.57812 7.40625 5.14688C7.84375 4.71563 8.375 4.5 9 4.5C9.6375 4.5 10.1719 4.71563 10.6031 5.14688C11.0344 5.57812 11.25 6.1125 11.25 6.75C11.25 7.375 11.0344 7.90625 10.6031 8.34375C10.1719 8.78125 9.6375 9 9 9ZM9 7.5C9.2125 7.5 9.39062 7.42813 9.53438 7.28438C9.67813 7.14062 9.75 6.9625 9.75 6.75C9.75 6.5375 9.67813 6.35938 9.53438 6.21563C9.39062 6.07188 9.2125 6 9 6C8.7875 6 8.60938 6.07188 8.46563 6.21563C8.32188 6.35938 8.25 6.5375 8.25 6.75C8.25 6.9625 8.32188 7.14062 8.46563 7.28438C8.60938 7.42813 8.7875 7.5 9 7.5Z" fill="white"/>
</svg>
