<svg width="312" height="113" viewBox="0 0 312 113" fill="none" xmlns="http://www.w3.org/2000/svg">
<g clip-path="url(#clip0_144_7310)">
<path d="M115.499 21.7765C118.607 21.7765 121.112 22.3328 123.014 23.4454C124.916 24.5478 126.278 26.1858 127.099 28.3595C127.92 30.5333 128.33 33.2788 128.33 36.596C128.33 40.006 127.878 42.8288 126.974 45.0643C126.07 47.2896 124.667 48.943 122.764 50.0248C120.873 51.1065 118.43 51.6473 115.437 51.6473C112.558 51.6473 110.193 51.1168 108.343 50.0557C106.493 48.9946 105.126 47.3514 104.242 45.1261C103.359 42.9009 102.917 40.0575 102.917 36.596C102.948 31.651 103.993 27.9526 106.051 25.5007C108.119 23.0488 111.269 21.8074 115.499 21.7765ZM109.933 36.596C110.047 40.0472 110.416 42.7258 111.04 44.6316C111.664 46.5375 113.129 47.5059 115.437 47.5368C117.141 47.5368 118.409 47.0269 119.241 46.007C120.083 44.9768 120.613 43.7096 120.831 42.2055C121.06 40.6911 121.174 38.8625 121.174 36.7197C121.174 34.5253 121.075 32.707 120.878 31.2647C120.691 29.8224 120.187 28.5707 119.366 27.5096C118.544 26.4382 117.297 25.8973 115.624 25.887C113.244 25.887 111.7 26.8503 110.993 28.7768C110.286 30.7032 109.933 33.3097 109.933 36.596Z" fill="white"/>
<path d="M149.129 35.1898V51.4001H144.654V35.9625C144.654 34.1905 143.293 33.3045 140.569 33.3045C139.239 33.459 138.283 33.8711 137.701 34.5408C137.129 35.2001 136.786 35.7358 136.672 36.1479V51.4001H130.669V30.3221H136.672V32.0374C136.755 31.9859 137.035 31.8004 137.513 31.4811C138.002 31.1617 138.688 30.8681 139.571 30.6002C140.465 30.3324 141.5 30.1984 142.674 30.1984C144.888 30.1984 146.515 30.7032 147.554 31.7129C148.604 32.7122 149.129 33.8711 149.129 35.1898Z" fill="white"/>
<path d="M151.873 51.4001V21.9001H157.751V51.4001H151.873Z" fill="white"/>
<path d="M160.604 51.4001V30.3221H166.544V51.4001H160.604ZM163.613 21.8383C164.673 21.8383 165.499 22.168 166.092 22.8273C166.695 23.4867 166.996 24.2748 166.996 25.1916C166.996 26.1291 166.689 26.9327 166.076 27.6023C165.473 28.272 164.631 28.6068 163.55 28.6068C162.511 28.6068 161.685 28.272 161.071 27.6023C160.458 26.9224 160.152 26.1394 160.152 25.2535C160.152 24.3469 160.458 23.5536 161.071 22.8737C161.685 22.1834 162.532 21.8383 163.613 21.8383Z" fill="white"/>
<path d="M187.545 35.1898V51.4001H183.07V35.9625C183.07 34.1905 181.709 33.3045 178.985 33.3045C177.655 33.459 176.699 33.8711 176.117 34.5408C175.545 35.2001 175.202 35.7358 175.088 36.1479V51.4001H169.085V30.3221H175.088V32.0374C175.171 31.9859 175.452 31.8004 175.93 31.4811C176.418 31.1617 177.104 30.8681 177.988 30.6002C178.882 30.3324 179.916 30.1984 181.09 30.1984C183.304 30.1984 184.931 30.7032 185.97 31.7129C187.02 32.7122 187.545 33.8711 187.545 35.1898Z" fill="white"/>
<path d="M195.527 41.9119C195.621 43.0245 196.006 44.4307 196.681 46.1306C197.357 47.8304 198.589 48.7216 200.376 48.804C202.559 48.804 204.269 48.531 205.506 47.985C206.743 47.4286 207.548 46.9651 207.922 46.5942L207.018 50.2566C207.018 50.4729 206.4 50.7614 205.163 51.1219C203.926 51.4722 202.351 51.6473 200.439 51.6473C199.68 51.6473 199.087 51.6267 198.661 51.5855C195.564 51.3589 193.293 50.4781 191.848 48.943C190.414 47.3977 189.681 44.9252 189.65 41.5256C189.65 37.6314 190.466 34.7777 192.097 32.9646C193.74 31.1514 196.141 30.2294 199.3 30.1984C203.094 30.1984 205.667 31.1874 207.018 33.1654C208.172 34.8035 208.749 37.0184 208.749 39.8103C208.749 40.3357 208.733 40.7838 208.702 41.1547C208.671 41.5153 208.645 41.7677 208.624 41.9119H195.527ZM199.877 32.8564C196.977 32.9491 195.527 35.0353 195.527 39.1149H204.789C204.789 34.9425 203.151 32.8564 199.877 32.8564Z" fill="white"/>
<path d="M45.5992 92.0469L52.2173 54.7781H59.8006L57.6143 67.0969C57.6143 67.0709 57.9426 66.9017 58.5991 66.5893C59.3082 66.2639 60.2011 65.9646 61.2779 65.6913C62.3547 65.4179 63.6087 65.2748 65.04 65.2618C70.043 65.2618 72.5445 67.3377 72.5445 71.4895L68.9203 92.0469H63.2673L66.6551 72.9342C66.7602 72.2834 66.8127 71.8604 66.8127 71.6652C66.8127 70.5979 66.4582 69.8496 65.7491 69.4201C65.0531 68.9906 63.9304 68.7758 62.3809 68.7758C61.5799 68.8149 60.8446 68.958 60.1749 69.2053C59.5183 69.4526 58.9602 69.7259 58.5006 70.0253C58.041 70.3246 57.6602 70.6175 57.3582 70.9038C57.0562 71.1771 56.8724 71.3463 56.8067 71.4114L53.1825 92.0469H45.5992Z" fill="white"/>
<path d="M88.2823 92.0469L88.7747 89.2551C88.4858 89.7367 87.6717 90.3354 86.3323 91.0512C85.006 91.767 82.9116 92.125 80.049 92.125C77.8692 92.0338 76.0768 91.5197 74.6718 90.5827C73.2667 89.6326 72.5642 88.1749 72.5642 86.2096C72.5642 86.0013 72.6167 85.5198 72.7218 84.7649C73.2076 82.0838 74.5339 80.073 76.7005 78.7324C78.8672 77.3918 81.9202 76.5784 85.8596 76.2921C87.8293 76.1489 89.3591 75.6413 90.4489 74.7693C91.5388 73.8973 92.0838 72.9407 92.0838 71.8995C92.0838 71.0405 91.7161 70.3181 90.9808 69.7324C90.2585 69.1468 89.2015 68.8539 87.8096 68.8539C84.6843 68.8539 82.1566 69.4266 80.2263 70.5719C78.3091 71.7042 77.0157 72.6543 76.346 73.4222L78.4536 68.1316C78.4536 68.0535 78.9066 67.7802 79.8126 67.3116C80.7318 66.8301 81.9596 66.3876 83.496 65.9841C85.0323 65.5676 86.8182 65.3529 88.8535 65.3398C95.8918 65.3398 99.411 67.4158 99.411 71.5676C99.411 71.8279 99.3585 72.2834 99.2534 72.9342L95.8656 92.0469H88.2823ZM85.3081 87.8885C87.0676 87.42 88.2166 86.8603 88.755 86.2096C89.3065 85.5588 89.5823 85.0512 89.5823 84.6868L90.705 78.6153C90.6393 78.7064 90.4949 78.9081 90.2717 79.2205C90.0484 79.5328 89.6085 79.8517 88.952 80.1771C88.2954 80.4894 87.35 80.7172 86.1156 80.8604C83.8702 81.1467 82.1172 81.6218 80.8566 82.2855C79.6091 82.9493 78.9131 84.0426 78.7687 85.5653C78.7687 87.3744 80.0621 88.279 82.649 88.279C83.4369 88.279 84.3232 88.1488 85.3081 87.8885Z" fill="white"/>
<path d="M125.962 71.5676L122.338 92.0469H116.685L120.152 72.5437C120.152 71.3463 119.804 70.4873 119.108 69.9667C118.412 69.4461 117.23 69.1858 115.562 69.1858C113.855 69.381 112.562 69.9016 111.682 70.7476C110.802 71.5806 110.238 72.2574 109.988 72.778L106.6 92.0469H99.0171L103.784 65.4179H111.367L110.953 67.5849C111.045 67.5329 111.439 67.3051 112.135 66.9017C112.831 66.4852 113.77 66.1077 114.952 65.7693C116.134 65.4309 117.466 65.2618 118.95 65.2618C123.625 65.2618 125.962 67.3637 125.962 71.5676Z" fill="white"/>
<path d="M135.003 97.9622C139.153 97.9622 141.438 96.7388 141.858 94.292L142.508 90.856C142.376 90.908 141.969 91.0577 141.287 91.305C140.604 91.5523 139.717 91.7801 138.627 91.9883C137.538 92.1835 136.382 92.2811 135.161 92.2811C132.587 92.177 130.532 91.6109 128.996 90.5827C127.459 89.5415 126.691 87.3875 126.691 84.1207C126.691 82.4157 126.908 80.5805 127.341 78.6153C128.155 74.6326 129.324 71.6587 130.847 69.6934C132.37 67.7151 133.92 66.4852 135.496 66.0036C137.071 65.509 138.818 65.2618 140.735 65.2618C141.812 65.3138 142.764 65.4895 143.591 65.7889C144.431 66.0882 145.16 66.4201 145.777 66.7845C146.342 67.1229 146.624 67.3051 146.624 67.3312L147.038 65.4179H154.543L149.618 93.0816C148.633 98.4828 144.116 101.255 136.067 101.398C133.191 101.398 130.873 101.157 129.114 100.676C127.354 100.207 126.337 99.8364 126.061 99.5631L126.297 95.4048C126.297 95.4698 126.691 95.7106 127.479 96.1271C128.267 96.5436 129.304 96.934 130.591 97.2985C131.878 97.6759 133.349 97.8972 135.003 97.9622ZM145.974 71.099C145.974 70.9429 145.58 70.5914 144.793 70.0448C144.018 69.4982 143.072 69.1272 141.956 68.932C139.396 68.932 137.465 69.7064 136.165 71.2552C134.879 72.791 133.9 75.2964 133.231 78.7714C132.915 80.2942 132.758 81.7584 132.758 83.164C132.758 86.9514 134.557 88.8451 138.155 88.8451C139.56 88.754 140.669 88.5328 141.484 88.1814C142.298 87.8169 142.829 87.5306 143.079 87.3224L145.974 71.099Z" fill="white"/>
<path d="M169.512 92.0469L170.005 89.2551C169.716 89.7367 168.902 90.3354 167.562 91.0512C166.236 91.767 164.141 92.125 161.279 92.125C159.099 92.0338 157.307 91.5197 155.902 90.5827C154.497 89.6326 153.794 88.1749 153.794 86.2096C153.794 86.0013 153.847 85.5198 153.952 84.7649C154.437 82.0838 155.764 80.073 157.93 78.7324C160.097 77.3918 163.15 76.5784 167.089 76.2921C169.059 76.1489 170.589 75.6413 171.679 74.7693C172.769 73.8973 173.314 72.9407 173.314 71.8995C173.314 71.0405 172.946 70.3181 172.211 69.7324C171.488 69.1468 170.431 68.8539 169.039 68.8539C165.914 68.8539 163.386 69.4266 161.456 70.5719C159.539 71.7042 158.246 72.6543 157.576 73.4222L159.683 68.1316C159.683 68.0535 160.136 67.7802 161.042 67.3116C161.962 66.8301 163.189 66.3876 164.726 65.9841C166.262 65.5676 168.048 65.3529 170.083 65.3398C177.122 65.3398 180.641 67.4158 180.641 71.5676C180.641 71.8279 180.588 72.2834 180.483 72.9342L177.095 92.0469H169.512ZM166.538 87.8885C168.297 87.42 169.446 86.8603 169.985 86.2096C170.536 85.5588 170.812 85.0512 170.812 84.6868L171.935 78.6153C171.869 78.7064 171.725 78.9081 171.502 79.2205C171.278 79.5328 170.838 79.8517 170.182 80.1771C169.525 80.4894 168.58 80.7172 167.346 80.8604C165.1 81.1467 163.347 81.6218 162.086 82.2855C160.839 82.9493 160.143 84.0426 159.999 85.5653C159.999 87.3744 161.292 88.279 163.879 88.279C164.667 88.279 165.553 88.1488 166.538 87.8885Z" fill="white"/>
<path d="M180.247 92.0469L185.014 65.4179H192.597L191.947 68.6977C192.039 68.6066 192.466 68.2422 193.227 67.6045C194.002 66.9667 195.079 66.4266 196.457 65.9841C197.626 65.5546 198.998 65.3398 200.574 65.3398C201.822 65.3398 202.603 65.3919 202.918 65.496L202.839 69.342C202.025 69.1207 201.191 69.0101 200.338 69.0101C198.631 69.0101 197.127 69.3355 195.827 69.9862C194.396 70.624 193.234 71.496 192.341 72.6023C191.461 73.7086 190.929 74.7237 190.745 75.6478L187.83 92.0469H180.247Z" fill="white"/>
<path d="M251.727 54.7781L233.488 92.6911L227.362 64.6956L211.939 92.6911L205.813 54.7781H214.854L217.435 73.1684L225.254 58.8583L224.604 54.7781H234.216L237.683 73.1684L246.231 54.7781H251.727Z" fill="white"/>
<path d="M262.639 92.0469L263.131 89.2551C262.842 89.7367 262.028 90.3354 260.689 91.0512C259.363 91.767 257.268 92.125 254.406 92.125C252.226 92.0338 250.433 91.5197 249.028 90.5827C247.623 89.6326 246.921 88.1749 246.921 86.2096C246.921 86.0013 246.973 85.5198 247.078 84.7649C247.564 82.0838 248.891 80.073 251.057 78.7324C253.224 77.3918 256.277 76.5784 260.216 76.2921C262.186 76.1489 263.716 75.6413 264.806 74.7693C265.895 73.8973 266.44 72.9407 266.44 71.8995C266.44 71.0405 266.073 70.3181 265.337 69.7324C264.615 69.1468 263.558 68.8539 262.166 68.8539C259.041 68.8539 256.513 69.4266 254.583 70.5719C252.666 71.7042 251.372 72.6543 250.703 73.4222L252.81 68.1316C252.81 68.0535 253.263 67.7802 254.169 67.3116C255.088 66.8301 256.316 66.3876 257.853 65.9841C259.389 65.5676 261.175 65.3529 263.21 65.3398C270.248 65.3398 273.768 67.4158 273.768 71.5676C273.768 71.8279 273.715 72.2834 273.61 72.9342L270.222 92.0469H262.639ZM259.665 87.8885C261.424 87.42 262.573 86.8603 263.112 86.2096C263.663 85.5588 263.939 85.0512 263.939 84.6868L265.062 78.6153C264.996 78.7064 264.852 78.9081 264.628 79.2205C264.405 79.5328 263.965 79.8517 263.309 80.1771C262.652 80.4894 261.707 80.7172 260.472 80.8604C258.227 81.1467 256.474 81.6218 255.213 82.2855C253.966 82.9493 253.27 84.0426 253.125 85.5653C253.125 87.3744 254.419 88.279 257.006 88.279C257.793 88.279 258.68 88.1488 259.665 87.8885Z" fill="white"/>
<path d="M273.531 92.0469L280.149 54.7781H287.575L280.957 92.0469H273.531Z" fill="white"/>
<path d="M300.536 92.0469L301.028 89.2551C300.739 89.7367 299.925 90.3354 298.586 91.0512C297.259 91.767 295.165 92.125 292.302 92.125C290.123 92.0338 288.33 91.5197 286.925 90.5827C285.52 89.6326 284.818 88.1749 284.818 86.2096C284.818 86.0013 284.87 85.5198 284.975 84.7649C285.461 82.0838 286.787 80.073 288.954 78.7324C291.121 77.3918 294.174 76.5784 298.113 76.2921C300.083 76.1489 301.612 75.6413 302.702 74.7693C303.792 73.8973 304.337 72.9407 304.337 71.8995C304.337 71.0405 303.969 70.3181 303.234 69.7324C302.512 69.1468 301.455 68.8539 300.063 68.8539C296.938 68.8539 294.41 69.4266 292.48 70.5719C290.562 71.7042 289.269 72.6543 288.599 73.4222L290.707 68.1316C290.707 68.0535 291.16 67.7802 292.066 67.3116C292.985 66.8301 294.213 66.3876 295.749 65.9841C297.286 65.5676 299.072 65.3529 301.107 65.3398C308.145 65.3398 311.664 67.4158 311.664 71.5676C311.664 71.8279 311.612 72.2834 311.507 72.9342L308.119 92.0469H300.536ZM297.561 87.8885C299.321 87.42 300.47 86.8603 301.008 86.2096C301.56 85.5588 301.836 85.0512 301.836 84.6868L302.958 78.6153C302.893 78.7064 302.748 78.9081 302.525 79.2205C302.302 79.5328 301.862 79.8517 301.205 80.1771C300.549 80.4894 299.603 80.7172 298.369 80.8604C296.124 81.1467 294.371 81.6218 293.11 82.2855C291.862 82.9493 291.167 84.0426 291.022 85.5653C291.022 87.3744 292.316 88.279 294.902 88.279C295.69 88.279 296.577 88.1488 297.561 87.8885Z" fill="white"/>
<path d="M12.1398 96.0861L0 88.372L15.1789 80.7762C13.4943 84.8957 15.4074 85.1123 18.48 85.1023C21.3162 85.0946 24.284 85.11 27.186 85.0382C30.9174 84.9454 33.5195 82.7553 34.2397 79.2391C34.951 75.7683 32.8752 73.1307 29.2753 73.0412C26.5884 72.9749 23.8983 72.9815 21.2114 73.0412C19.9226 73.071 19.5848 72.6743 19.742 71.3715C20.3095 66.6664 20.3998 66.5095 25.1536 66.547C28.9152 66.5802 32.5117 66.7548 35.5497 63.5834C37.1429 61.9259 39.8286 61.285 42.2066 60.0927C42.4786 63.3083 41.0917 65.6266 39.2065 67.7172C38.5119 68.4907 38.1518 68.9195 38.8988 70.0831C44.5534 78.8889 38.0069 90.8063 27.1838 91.4671C24.2907 91.6428 21.3787 91.4892 18.4767 91.5301C15.4152 91.5843 11.4842 90.2726 12.1398 96.0861Z" fill="white"/>
<path d="M8.34923 81.1077C9.51538 75.6103 10.5355 70.5494 11.7128 65.452C12.9915 60.3369 13.1621 55.5577 8.25669 51.0736C16.5836 51.0736 24.0543 51.0549 31.5239 51.0847C33.7704 51.0946 36.0782 51.5499 36.2699 48.1266C36.3669 46.4006 37.5531 47.2879 38.3202 47.7785C41.4763 49.7985 44.6158 51.8471 48.3094 54.2406L33.6611 61.7701C35.0291 56.7909 32.1304 56.8826 29.3901 56.7523C26.293 56.6053 22.2271 55.96 20.4522 58.118C18.9404 59.9557 18.6628 63.3248 18.2292 66.2277C17.9148 68.3272 17.4242 70.3096 16.9493 72.4732C15.8177 77.6247 13.3316 79.711 8.34923 81.1077Z" fill="#1A9B38"/>
</g>
<defs>
<clipPath id="clip0_144_7310">
<rect width="311.662" height="112.368" fill="white" transform="scale(1.00108)"/>
</clipPath>
</defs>
</svg>
