<svg width="170" height="170" viewBox="0 0 170 170" fill="none" xmlns="http://www.w3.org/2000/svg">
<circle cx="85" cy="85" r="84.5" stroke="white" stroke-opacity="0.65" stroke-dasharray="11 11"/>
<circle cx="84.9999" cy="84.9999" r="63.5365" fill="white" fill-opacity="0.02"/>
<circle cx="84.9998" cy="84.9998" r="38.9099" fill="white"/>
<path d="M101.132 86.2615H92.9871V78.5896C92.9871 78.1138 92.7981 77.6575 92.4616 77.321C92.1252 76.9845 91.6688 76.7955 91.193 76.7955H80.5635V73.9505C80.5635 71.5033 82.5528 69.514 85 69.514C87.4472 69.514 89.4364 71.5033 89.4364 73.9505C89.4364 74.3634 89.7743 74.7012 90.1871 74.7012C90.6 74.7012 90.9378 74.3634 90.9378 73.9505C90.9378 70.6776 88.2729 68.0127 85 68.0127C81.7271 68.0127 79.0622 70.6776 79.0622 73.9505V76.7955H78.807C78.3312 76.7955 77.8748 76.9845 77.5384 77.321C77.2019 77.6575 77.0129 78.1138 77.0129 78.5896V86.2615H68.8681C67.4118 86.2615 66.2333 87.4475 66.2333 88.8963V99.3606C66.2333 100.809 67.4118 101.995 68.8681 101.995H101.132C102.581 101.995 103.767 100.817 103.767 99.3606V88.8963C103.767 87.4475 102.588 86.2615 101.132 86.2615ZM78.5142 78.5896C78.5142 78.4245 78.6493 78.2969 78.807 78.2969H91.193C91.3582 78.2969 91.4858 78.432 91.4858 78.5896V87.3724C91.4858 87.5376 91.3507 87.6652 91.193 87.6652H78.807C78.7685 87.6652 78.7305 87.6576 78.695 87.6429C78.6594 87.6282 78.6272 87.6066 78.6 87.5795C78.5728 87.5523 78.5512 87.52 78.5365 87.4845C78.5218 87.449 78.5142 87.4109 78.5142 87.3724V78.5896ZM102.265 99.3606C102.265 99.9837 101.755 100.494 101.132 100.494H68.8681C68.2451 100.494 67.7346 99.9837 67.7346 99.3606V88.8963C67.7346 88.2732 68.2451 87.7628 68.8681 87.7628H77.0579C77.1466 88.1607 77.3682 88.5165 77.6861 88.7716C78.004 89.0268 78.3993 89.1661 78.807 89.1665H91.193C92.0488 89.1665 92.7619 88.566 92.9421 87.7628H101.132C101.755 87.7628 102.265 88.2732 102.265 88.8963V99.3606Z" fill="#06193D"/>
<path d="M77.1932 93.3774H75.6543L76.42 92.0488C76.6302 91.6884 76.5026 91.2305 76.1423 91.0204C75.7819 90.8102 75.324 90.9378 75.1138 91.2981L74.3482 92.6268L73.5825 91.2981C73.3723 90.9378 72.9144 90.8177 72.5541 91.0204C72.1937 91.223 72.0736 91.6884 72.2763 92.0488L73.042 93.3774H71.5031C71.0903 93.3774 70.7525 93.7153 70.7525 94.1281C70.7525 94.541 71.0903 94.8788 71.5031 94.8788H73.042L72.2763 96.2075C72.2108 96.3219 72.1765 96.4515 72.1768 96.5833C72.1772 96.7152 72.2122 96.8446 72.2783 96.9587C72.3445 97.0727 72.4395 97.1674 72.5537 97.2332C72.668 97.299 72.7975 97.3335 72.9294 97.3335C73.1921 97.3335 73.4398 97.1984 73.5825 96.9581L74.3482 95.6295L75.1138 96.9581C75.2565 97.1984 75.5042 97.3335 75.7669 97.3335C75.8945 97.3335 76.0221 97.3034 76.1423 97.2359C76.5026 97.0257 76.6227 96.5678 76.42 96.2075L75.6543 94.8788H77.1932C77.6061 94.8788 77.9439 94.541 77.9439 94.1281C77.9439 93.7153 77.6061 93.3774 77.1932 93.3774ZM87.8377 93.3774H86.2988L87.0645 92.0488C87.2747 91.6884 87.147 91.2305 86.7867 91.0204C86.4264 90.8102 85.9685 90.9378 85.7583 91.2981L85.0001 92.6268L84.2345 91.2981C84.134 91.1259 83.9697 91.0002 83.7772 90.9482C83.5848 90.8962 83.3795 90.9221 83.206 91.0204C82.8457 91.2305 82.7256 91.6884 82.9283 92.0488L83.694 93.3774H82.1551C81.7422 93.3774 81.4044 93.7153 81.4044 94.1281C81.4044 94.541 81.7422 94.8788 82.1551 94.8788H83.694L82.9283 96.2075C82.8628 96.3219 82.8285 96.4515 82.8288 96.5833C82.8292 96.7152 82.8642 96.8446 82.9303 96.9587C82.9965 97.0727 83.0915 97.1674 83.2057 97.2332C83.32 97.299 83.4495 97.3335 83.5814 97.3335C83.8441 97.3335 84.0918 97.1984 84.2345 96.9581L85.0001 95.6295L85.7658 96.9581C85.9084 97.1984 86.1562 97.3335 86.4189 97.3335C86.5465 97.3335 86.6741 97.3034 86.7942 97.2359C87.1546 97.0257 87.2747 96.5678 87.072 96.2075L86.3063 94.8788H87.8452C88.258 94.8788 88.5958 94.541 88.5958 94.1281C88.5958 93.7153 88.2505 93.3774 87.8377 93.3774ZM98.4821 93.3774H96.9433L97.709 92.0488C97.9191 91.6884 97.7915 91.2305 97.4312 91.0204C97.0709 90.8102 96.613 90.9378 96.4028 91.2981L95.6371 92.6268L94.8714 91.2981C94.771 91.1259 94.6067 91.0002 94.4142 90.9482C94.2217 90.8962 94.0165 90.9221 93.843 91.0204C93.4827 91.2305 93.3626 91.6884 93.5653 92.0488L94.3309 93.3774H92.8071C92.3942 93.3774 92.0564 93.7153 92.0564 94.1281C92.0564 94.541 92.3942 94.8788 92.8071 94.8788H94.346L93.5803 96.2075C93.5147 96.3219 93.4804 96.4515 93.4808 96.5833C93.4812 96.7152 93.5162 96.8446 93.5823 96.9587C93.6485 97.0727 93.7434 97.1674 93.8577 97.2332C93.972 97.299 94.1015 97.3335 94.2334 97.3335C94.4961 97.3335 94.7438 97.1984 94.8864 96.9581L95.6521 95.6295L96.4178 96.9581C96.5604 97.1984 96.8082 97.3335 97.0709 97.3335C97.1985 97.3335 97.3261 97.3034 97.4462 97.2359C97.8065 97.0257 97.9266 96.5678 97.724 96.2075L96.9583 94.8788H98.4972C98.91 94.8788 99.2478 94.541 99.2478 94.1281C99.2478 93.7153 98.895 93.3774 98.4821 93.3774Z" fill="#06193D"/>
</svg>
